<?xml version="1.0" encoding="utf-8"?>
<!-- Generator: Adobe Illustrator 28.3.0, SVG Export Plug-In . SVG Version: 6.00 Build 0)  -->
<svg version="1.1" id="FINAL" xmlns="http://www.w3.org/2000/svg" xmlns:xlink="http://www.w3.org/1999/xlink" x="0px" y="0px"
	 viewBox="0 0 76 76" style="enable-background:new 0 0 76 76;" xml:space="preserve">
<circle cx="41.01" cy="41.13" r="6.32"/>
<circle cx="28.03" cy="28.16" r="3.37"/>
<circle cx="50.07" cy="50.19" r="3.37"/>
<path d="M50.07,32.92c7.12,5.73,4.97,17.53-3.66,20.66c-4.72,1.71-10.57,0.54-13.62-3.38c4.71,4.24,12.23,3.83,16.6-0.66
	C53.89,45.17,54.29,37.64,50.07,32.92L50.07,32.92z"/>
<path d="M28.03,54.96c-8.26-6.78-8.02-20.45-0.82-27.58c6.92-7.41,20.86-7.49,27.63,0.78c-7.44-6.47-19.23-6.3-26.06,0.74
	C21.73,35.72,21.56,47.52,28.03,54.96L28.03,54.96z"/>
</svg>
