<?xml version="1.0" encoding="utf-8"?>
<!-- Generator: Adobe Illustrator 28.3.0, SVG Export Plug-In . SVG Version: 6.00 Build 0)  -->
<svg version="1.1" id="FINAL" xmlns="http://www.w3.org/2000/svg" xmlns:xlink="http://www.w3.org/1999/xlink" x="0px" y="0px"
	 viewBox="0 0 76 76" style="enable-background:new 0 0 76 76;" xml:space="preserve">
<path d="M24.1,25.22l9.02,33.89c0.14,0.52-0.66,0.78-0.83,0.24c0,0-10.4-33.49-10.4-33.49C21.46,24.39,23.67,23.73,24.1,25.22
	L24.1,25.22z"/>
<path d="M30.01,42.82l-4.66-17.74c6.64-6.69,19.72,1.84,25.08-6.24c-0.12,3.43-0.78,6.86-1.97,11.08c0,0,0,0.01,0,0.01
	c1.85,1.84,4.57,3.28,7.17,4.4C51.35,43.86,35.45,34.49,30.01,42.82z"/>
</svg>
